<?xml version="1.0" encoding="UTF-8" standalone="no"?>
<!DOCTYPE svg PUBLIC "-//W3C//DTD SVG 1.1//EN"
 "http://www.w3.org/Graphics/SVG/1.1/DTD/svg11.dtd">
<!-- Generated by graphviz version 2.40.1 (20161225.0304)
 -->
<!-- Title: %3 Pages: 1 -->
<svg width="562pt" height="556pt"
 viewBox="0.00 0.00 562.25 556.00" xmlns="http://www.w3.org/2000/svg" xmlns:xlink="http://www.w3.org/1999/xlink">
<g id="graph0" class="graph" transform="scale(1 1) rotate(0) translate(4 552)">
<title>%3</title>
<polygon fill="#ffffff" stroke="transparent" points="-4,4 -4,-552 558.2538,-552 558.2538,4 -4,4"/>
<!-- step_1 -->
<g id="node1" class="node">
<title>step_1</title>
<ellipse fill="none" stroke="#000000" cx="415.5" cy="-530" rx="62.2891" ry="18"/>
<text text-anchor="middle" x="415.5" y="-526.3" font-family="Times,serif" font-size="14.00" fill="#000000">data_importer</text>
</g>
<!-- artifact_1 -->
<g id="node2" class="node">
<title>artifact_1</title>
<polygon fill="none" stroke="#000000" points="520,-476 311,-476 311,-438 520,-438 520,-476"/>
<text text-anchor="middle" x="415.5" y="-460.8" font-family="Times,serif" font-size="14.00" fill="#000000">output </text>
<text text-anchor="middle" x="415.5" y="-445.8" font-family="Times,serif" font-size="14.00" fill="#000000">(datasets.dataset_dict.DatasetDict)</text>
</g>
<!-- step_1&#45;&gt;artifact_1 -->
<g id="edge1" class="edge">
<title>step_1&#45;&gt;artifact_1</title>
<path fill="none" stroke="#000000" d="M415.5,-511.9551C415.5,-504.2107 415.5,-494.9622 415.5,-486.2811"/>
<polygon fill="#000000" stroke="#000000" points="419.0001,-486.1128 415.5,-476.1128 412.0001,-486.1129 419.0001,-486.1128"/>
</g>
<!-- step_2 -->
<g id="node3" class="node">
<title>step_2</title>
<ellipse fill="none" stroke="#000000" cx="415.5" cy="-384" rx="56.59" ry="18"/>
<text text-anchor="middle" x="415.5" y="-380.3" font-family="Times,serif" font-size="14.00" fill="#000000">tokenization</text>
</g>
<!-- artifact_1&#45;&gt;step_2 -->
<g id="edge3" class="edge">
<title>artifact_1&#45;&gt;step_2</title>
<path fill="none" stroke="#000000" d="M415.5,-437.8201C415.5,-430.0975 415.5,-421.0282 415.5,-412.5585"/>
<polygon fill="#000000" stroke="#000000" points="419.0001,-412.2973 415.5,-402.2973 412.0001,-412.2974 419.0001,-412.2973"/>
</g>
<!-- artifact_2 -->
<g id="node4" class="node">
<title>artifact_2</title>
<polygon fill="none" stroke="#000000" points="520,-330 311,-330 311,-292 520,-292 520,-330"/>
<text text-anchor="middle" x="415.5" y="-314.8" font-family="Times,serif" font-size="14.00" fill="#000000">output </text>
<text text-anchor="middle" x="415.5" y="-299.8" font-family="Times,serif" font-size="14.00" fill="#000000">(datasets.dataset_dict.DatasetDict)</text>
</g>
<!-- step_2&#45;&gt;artifact_2 -->
<g id="edge2" class="edge">
<title>step_2&#45;&gt;artifact_2</title>
<path fill="none" stroke="#000000" d="M415.5,-365.9551C415.5,-358.2107 415.5,-348.9622 415.5,-340.2811"/>
<polygon fill="#000000" stroke="#000000" points="419.0001,-340.1128 415.5,-330.1128 412.0001,-340.1129 419.0001,-340.1128"/>
</g>
<!-- step_3 -->
<g id="node5" class="node">
<title>step_3</title>
<ellipse fill="none" stroke="#000000" cx="384.5" cy="-238" rx="34.394" ry="18"/>
<text text-anchor="middle" x="384.5" y="-234.3" font-family="Times,serif" font-size="14.00" fill="#000000">trainer</text>
</g>
<!-- artifact_2&#45;&gt;step_3 -->
<g id="edge5" class="edge">
<title>artifact_2&#45;&gt;step_3</title>
<path fill="none" stroke="#000000" d="M407.3551,-291.8201C403.8772,-283.6302 399.7561,-273.9257 395.9776,-265.0279"/>
<polygon fill="#000000" stroke="#000000" points="399.189,-263.6358 392.0587,-255.7994 392.7459,-266.372 399.189,-263.6358"/>
</g>
<!-- step_4 -->
<g id="node7" class="node">
<title>step_4</title>
<ellipse fill="none" stroke="#000000" cx="415.5" cy="-92" rx="44.6926" ry="18"/>
<text text-anchor="middle" x="415.5" y="-88.3" font-family="Times,serif" font-size="14.00" fill="#000000">evaluator</text>
</g>
<!-- artifact_2&#45;&gt;step_4 -->
<g id="edge7" class="edge">
<title>artifact_2&#45;&gt;step_4</title>
<path fill="none" stroke="#000000" d="M449.9792,-291.9148C499.6053,-261.9085 581.3649,-201.3963 544.5,-146 527.5488,-120.5277 496.0254,-107.0481 468.3848,-99.9266"/>
<polygon fill="#000000" stroke="#000000" points="468.9471,-96.4634 458.4113,-97.5801 467.344,-103.2773 468.9471,-96.4634"/>
</g>
<!-- artifact_3 -->
<g id="node6" class="node">
<title>artifact_3</title>
<polygon fill="none" stroke="#000000" points="535,-184 0,-184 0,-146 535,-146 535,-184"/>
<text text-anchor="middle" x="267.5" y="-168.8" font-family="Times,serif" font-size="14.00" fill="#000000">output </text>
<text text-anchor="middle" x="267.5" y="-153.8" font-family="Times,serif" font-size="14.00" fill="#000000">(transformers.models.distilbert.modeling_tf_distilbert.TFDistilBertForTokenClassification)</text>
</g>
<!-- step_3&#45;&gt;artifact_3 -->
<g id="edge4" class="edge">
<title>step_3&#45;&gt;artifact_3</title>
<path fill="none" stroke="#000000" d="M362.2178,-224.0974C346.5349,-214.3123 325.1265,-200.955 306.6303,-189.4146"/>
<polygon fill="#000000" stroke="#000000" points="308.4327,-186.4138 298.0959,-184.0897 304.7272,-192.3527 308.4327,-186.4138"/>
</g>
<!-- artifact_3&#45;&gt;step_4 -->
<g id="edge8" class="edge">
<title>artifact_3&#45;&gt;step_4</title>
<path fill="none" stroke="#000000" d="M306.3853,-145.8201C328.5671,-134.8791 356.2289,-121.235 378.1504,-110.4225"/>
<polygon fill="#000000" stroke="#000000" points="379.741,-113.5406 387.1611,-105.978 376.6444,-107.2627 379.741,-113.5406"/>
</g>
<!-- artifact_4 -->
<g id="node8" class="node">
<title>artifact_4</title>
<polygon fill="none" stroke="#000000" points="464.5,-38 366.5,-38 366.5,0 464.5,0 464.5,-38"/>
<text text-anchor="middle" x="415.5" y="-22.8" font-family="Times,serif" font-size="14.00" fill="#000000">output </text>
<text text-anchor="middle" x="415.5" y="-7.8" font-family="Times,serif" font-size="14.00" fill="#000000">(builtins.float)</text>
</g>
<!-- step_4&#45;&gt;artifact_4 -->
<g id="edge6" class="edge">
<title>step_4&#45;&gt;artifact_4</title>
<path fill="none" stroke="#000000" d="M415.5,-73.9551C415.5,-66.2107 415.5,-56.9622 415.5,-48.2811"/>
<polygon fill="#000000" stroke="#000000" points="419.0001,-48.1128 415.5,-38.1128 412.0001,-48.1129 419.0001,-48.1128"/>
</g>
</g>
</svg>
